<?xml version="1.0" standalone="no"?>
<!DOCTYPE svg PUBLIC "-//W3C//DTD SVG 20010904//EN"
 "http://www.w3.org/TR/2001/REC-SVG-20010904/DTD/svg10.dtd">
<svg version="1.0" xmlns="http://www.w3.org/2000/svg"
 width="128.000000pt" height="128.000000pt" viewBox="0 0 128.000000 128.000000"
 preserveAspectRatio="xMidYMid meet">
<metadata>
Created by potrace 1.16, written by Peter Selinger 2001-2019
</metadata>
<g transform="translate(0.000000,128.000000) scale(0.100000,-0.100000)"
fill="#f9f9f9" stroke="none">
<path d="M478 1264 c-219 -52 -405 -238 -462 -461 -20 -77 -20 -238 -1 -322
52 -219 247 -414 466 -466 82 -19 236 -19 318 0 219 52 414 247 466 466 19 84
19 245 -1 322 -58 223 -238 403 -461 461 -75 20 -246 20 -325 0z m277 -39
c218 -46 396 -212 461 -430 24 -81 24 -229 0 -310 -65 -220 -243 -384 -466
-431 -293 -61 -596 129 -686 431 -24 81 -24 229 0 310 91 306 392 493 691 430z"/>
<path d="M402 978 c-9 -9 -12 -98 -12 -338 0 -341 1 -350 43 -350 29 0 566
312 573 333 3 9 3 25 0 35 -7 20 -544 332 -573 332 -10 0 -24 -5 -31 -12z
m331 -206 c119 -68 217 -128 217 -132 0 -4 -98 -64 -217 -132 -120 -69 -235
-136 -255 -148 l-38 -22 0 302 0 302 38 -22 c20 -12 135 -79 255 -148z"/>
</g>
</svg>
